# xmcd CD database file
#
# Track frame offsets:
#	150
#	24175
#	45020
#	69850
#	100677
#	129964
#	163615
#	187791
#
# Disc length: 2789 seconds
#
# Revision: 0
# Processed by: cddbd v1.5.2PL0 Copyright (c) Steve Scherf et al.
# Submitted via: CDex 1.70beta2
#
DISCID=490ae308
DTITLE=矢野沙織 - Swingin'n'Singin'
DYEAR=2009
DGENRE=Jazz
TTITLE0=The Days of Wine and Roses
TTITLE1=Open Mind
TTITLE2=Tico Tico
TTITLE3=Groovin' High
TTITLE4=浜辺の歌
TTITLE5=(They Long To Be) Close To You
TTITLE6=Danny Boy (Irish Folk Song)
TTITLE7=Sk8 Game
EXTD=YEAR: 2009
EXTT0=
EXTT1=
EXTT2=
EXTT3=
EXTT4=
EXTT5=
EXTT6=
EXTT7=
PLAYORDER=
